<svg xmlns="http://www.w3.org/2000/svg" width="555" height="462" viewBox="0 0 555 462">
<defs><marker id="punta" markerWidth="9" markerHeight="9" refX="8" refY="3" orient="auto"><path d="M0,0 L8,3 L0,6" fill="none" stroke="#40484f" stroke-width="1.2"/></marker></defs>
<rect width="100%" height="100%" fill="#ffffff"/>
<text x="277.5" y="26.0" font-family="Helvetica, Arial, sans-serif" font-size="15" font-weight="600" fill="#12181d" text-anchor="middle" dominant-baseline="middle">Módulo 6: Tablero, Indicadores y Apoyo a la Decisión</text>
<rect x="205.0" y="46.0" width="290.0" height="352.0" fill="#ffffff" stroke="#40484f" stroke-width="1.5"/>
<text x="350.0" y="66.0" font-family="Helvetica, Arial, sans-serif" font-size="13" font-weight="600" fill="#12181d" text-anchor="middle" dominant-baseline="middle">Sistema de Gestión de Tambo</text>
<line x1="105.0" y1="246.0" x2="225.0" y2="114.0" stroke="#40484f" stroke-width="1.2"/>
<line x1="105.0" y1="246.0" x2="225.0" y2="194.0" stroke="#40484f" stroke-width="1.2"/>
<line x1="105.0" y1="246.0" x2="225.0" y2="274.0" stroke="#40484f" stroke-width="1.2"/>
<line x1="105.0" y1="246.0" x2="225.0" y2="354.0" stroke="#40484f" stroke-width="1.2"/>
<circle cx="85.0" cy="218.0" r="10" fill="#f4f6f8" stroke="#40484f" stroke-width="1.4"/>
<path d="M 85.0 228.0 L 85.0 252.0 M 69.0 236.0 L 101.0 236.0 M 85.0 252.0 L 72.0 272.0 M 85.0 252.0 L 98.0 272.0" stroke="#40484f" stroke-width="1.4" fill="none"/>
<text x="85.0" y="300.0" font-family="Helvetica, Arial, sans-serif" font-size="11" fill="#12181d" text-anchor="middle" dominant-baseline="middle">Encargada del sector</text>
<ellipse cx="350.0" cy="114.0" rx="125.0" ry="28.0" fill="#f4f6f8" stroke="#40484f" stroke-width="1.2"/>
<text x="350.0" y="114.0" font-family="Helvetica, Arial, sans-serif" font-size="11" fill="#12181d" text-anchor="middle" dominant-baseline="middle">CU40 — Consultar Tablero de Inicio</text>
<ellipse cx="350.0" cy="194.0" rx="125.0" ry="28.0" fill="#f4f6f8" stroke="#40484f" stroke-width="1.2"/>
<text x="350.0" y="187.1" font-family="Helvetica, Arial, sans-serif" font-size="11" fill="#12181d" text-anchor="middle" dominant-baseline="middle">CU41 — Consultar Indicadores del</text>
<text x="350.0" y="200.9" font-family="Helvetica, Arial, sans-serif" font-size="11" fill="#12181d" text-anchor="middle" dominant-baseline="middle">Rodeo</text>
<ellipse cx="350.0" cy="274.0" rx="125.0" ry="28.0" fill="#f4f6f8" stroke="#40484f" stroke-width="1.2"/>
<text x="350.0" y="267.1" font-family="Helvetica, Arial, sans-serif" font-size="11" fill="#12181d" text-anchor="middle" dominant-baseline="middle">CU42 — Consultar Candidatas a</text>
<text x="350.0" y="280.9" font-family="Helvetica, Arial, sans-serif" font-size="11" fill="#12181d" text-anchor="middle" dominant-baseline="middle">Descarte</text>
<ellipse cx="350.0" cy="354.0" rx="125.0" ry="28.0" fill="#f4f6f8" stroke="#40484f" stroke-width="1.2"/>
<text x="350.0" y="354.0" font-family="Helvetica, Arial, sans-serif" font-size="11" fill="#12181d" text-anchor="middle" dominant-baseline="middle">CU43 — Buscar Animal por Caravana</text>
</svg>