<svg xmlns="http://www.w3.org/2000/svg" width="1092" height="384" viewBox="0 0 1092 384">
<defs><marker id="punta" markerWidth="9" markerHeight="9" refX="8" refY="3" orient="auto"><path d="M0,0 L8,3 L0,6" fill="none" stroke="#40484f" stroke-width="1.2"/></marker></defs>
<rect width="100%" height="100%" fill="#ffffff"/>
<text x="546.0" y="26.0" font-family="Helvetica, Arial, sans-serif" font-size="15" font-weight="600" fill="#12181d" text-anchor="middle" dominant-baseline="middle">CU31 — Consultar Calendario Sanitario</text>
<rect x="40.0" y="56.0" width="144.0" height="46.0" rx="3" fill="#f4f6f8" stroke="#40484f" stroke-width="1.2"/>
<text x="112.0" y="79.0" font-family="Helvetica, Arial, sans-serif" font-size="11" font-weight="600" fill="#12181d" text-anchor="middle" dominant-baseline="middle">Encargada</text>
<rect x="111.0" y="102.0" width="2.0" height="254.0" rx="3" fill="#40484f" stroke="#40484f" stroke-width="1.2"/>
<rect x="212.0" y="56.0" width="144.0" height="46.0" rx="3" fill="#f4f6f8" stroke="#40484f" stroke-width="1.2"/>
<text x="284.0" y="72.1" font-family="Helvetica, Arial, sans-serif" font-size="11" font-weight="600" fill="#12181d" text-anchor="middle" dominant-baseline="middle">Consultar Calendario</text>
<text x="284.0" y="85.9" font-family="Helvetica, Arial, sans-serif" font-size="11" font-weight="600" fill="#12181d" text-anchor="middle" dominant-baseline="middle">Sanit</text>
<rect x="283.0" y="102.0" width="2.0" height="254.0" rx="3" fill="#40484f" stroke="#40484f" stroke-width="1.2"/>
<rect x="384.0" y="56.0" width="144.0" height="46.0" rx="3" fill="#f4f6f8" stroke="#40484f" stroke-width="1.2"/>
<text x="456.0" y="79.0" font-family="Helvetica, Arial, sans-serif" font-size="11" font-weight="600" fill="#12181d" text-anchor="middle" dominant-baseline="middle">Controladora</text>
<rect x="455.0" y="102.0" width="2.0" height="254.0" rx="3" fill="#40484f" stroke="#40484f" stroke-width="1.2"/>
<rect x="556.0" y="56.0" width="144.0" height="46.0" rx="3" fill="#f4f6f8" stroke="#40484f" stroke-width="1.2"/>
<text x="628.0" y="79.0" font-family="Helvetica, Arial, sans-serif" font-size="11" font-weight="600" fill="#12181d" text-anchor="middle" dominant-baseline="middle">pControladora</text>
<rect x="627.0" y="102.0" width="2.0" height="254.0" rx="3" fill="#40484f" stroke="#40484f" stroke-width="1.2"/>
<rect x="728.0" y="56.0" width="144.0" height="46.0" rx="3" fill="#f4f6f8" stroke="#40484f" stroke-width="1.2"/>
<text x="800.0" y="79.0" font-family="Helvetica, Arial, sans-serif" font-size="11" font-weight="600" fill="#12181d" text-anchor="middle" dominant-baseline="middle">pConfiguracion</text>
<rect x="799.0" y="102.0" width="2.0" height="254.0" rx="3" fill="#40484f" stroke="#40484f" stroke-width="1.2"/>
<rect x="900.0" y="56.0" width="144.0" height="46.0" rx="3" fill="#f4f6f8" stroke="#40484f" stroke-width="1.2"/>
<text x="972.0" y="79.0" font-family="Helvetica, Arial, sans-serif" font-size="11" font-weight="600" fill="#12181d" text-anchor="middle" dominant-baseline="middle">pConexion</text>
<rect x="971.0" y="102.0" width="2.0" height="254.0" rx="3" fill="#40484f" stroke="#40484f" stroke-width="1.2"/>
<line x1="284.0" y1="140.0" x2="456.0" y2="140.0" stroke="#40484f" stroke-width="1.2" marker-end="url(#punta)"/>
<text x="370.0" y="130.0" font-family="Helvetica, Arial, sans-serif" font-size="10" fill="#12181d" text-anchor="middle" dominant-baseline="middle">1. ObtenerConfiguracion()</text>
<line x1="456.0" y1="186.0" x2="628.0" y2="186.0" stroke="#40484f" stroke-width="1.2" marker-end="url(#punta)"/>
<text x="542.0" y="176.0" font-family="Helvetica, Arial, sans-serif" font-size="10" fill="#12181d" text-anchor="middle" dominant-baseline="middle">2. ObtenerConfiguracion()</text>
<line x1="628.0" y1="232.0" x2="800.0" y2="232.0" stroke="#40484f" stroke-width="1.2" marker-end="url(#punta)"/>
<text x="714.0" y="222.0" font-family="Helvetica, Arial, sans-serif" font-size="10" fill="#12181d" text-anchor="middle" dominant-baseline="middle">3. ObtenerConfiguracion()</text>
<line x1="800.0" y1="278.0" x2="972.0" y2="278.0" stroke="#40484f" stroke-width="1.2" marker-end="url(#punta)"/>
<text x="886.0" y="268.0" font-family="Helvetica, Arial, sans-serif" font-size="10" fill="#12181d" text-anchor="middle" dominant-baseline="middle">4. EjecutarConsulta()</text>
</svg>